<svg xmlns="http://www.w3.org/2000/svg" width="87.909" height="79.114" viewBox="0 0 87.909 79.114">
  <g id="bx-cloud-rain" transform="translate(-2 -4.001)">
    <path id="패스_1576" data-name="패스 1576" d="M8,13h8.791V43.768H8Zm13.186,8.791h8.791V52.559H21.186ZM34.373,13h8.791V43.768H34.373Z" transform="translate(20.373 30.556)" fill="#d3d3d3"/>
    <path id="패스_1577" data-name="패스 1577" d="M76.476,30.866A30.81,30.81,0,0,0,45.954,4,29.63,29.63,0,0,0,18.514,22.242C9.072,25.064,2,33.973,2,43.56A22,22,0,0,0,23.977,65.537V56.746A13.2,13.2,0,0,1,10.791,43.56c0-6.167,5.27-12.114,11.749-13.252l2.554-.453.844-2.457c3.09-9.011,10.764-14.606,20.017-14.606A22,22,0,0,1,67.932,34.769v4.4h4.4a8.791,8.791,0,0,1,0,17.582h-4.4v8.791h4.4a17.584,17.584,0,0,0,4.149-34.671Z" transform="translate(0 0)" fill="#d3d3d3"/>
  </g>
</svg>
