<svg xmlns="http://www.w3.org/2000/svg" xmlns:xlink="http://www.w3.org/1999/xlink" width="73.153" height="79.113" viewBox="0 0 73.153 79.113">
  <defs>
    <clipPath id="clip-path">
      <rect id="사각형_215" data-name="사각형 215" width="73.153" height="79.113" fill="#d3d3d3"/>
    </clipPath>
  </defs>
  <g id="그룹_498" data-name="그룹 498" transform="translate(0 0)">
    <g id="그룹_497" data-name="그룹 497" transform="translate(0 0)" clip-path="url(#clip-path)">
      <path id="패스_1542" data-name="패스 1542" d="M69.043,43.088,55.087,46.143V32.971l13.956,3.055a3.384,3.384,0,1,0,1.448-6.611l-6.944-1.52L69.594,24.4a3.384,3.384,0,1,0-3.384-5.862l-6.048,3.493,2.156-6.775A3.384,3.384,0,0,0,55.869,13.2L51.536,26.819,40.127,20.232,49.751,9.673a3.384,3.384,0,0,0-5-4.559L39.96,10.368V3.384a3.384,3.384,0,0,0-6.769,0v6.985L28.4,5.115a3.384,3.384,0,1,0-5,4.559l9.624,10.56L21.618,26.819,17.284,13.2a3.384,3.384,0,0,0-6.449,2.053l2.156,6.774L6.943,18.539A3.384,3.384,0,1,0,3.559,24.4l6.047,3.492L2.662,29.414a3.384,3.384,0,1,0,1.447,6.611l13.957-3.055V46.143L4.109,43.088A3.384,3.384,0,1,0,2.662,49.7L9.607,51.22,3.559,54.712a3.384,3.384,0,1,0,3.384,5.862l6.048-3.492-2.156,6.774a3.384,3.384,0,1,0,6.449,2.053l4.333-13.615,11.407,6.587L23.4,69.441A3.384,3.384,0,1,0,28.4,74l4.789-5.254V75.73a3.384,3.384,0,1,0,6.769,0V68.745L44.748,74a3.384,3.384,0,1,0,5-4.559l-9.625-10.56,11.409-6.587,4.333,13.615a3.384,3.384,0,1,0,6.449-2.053l-2.156-6.774,6.048,3.492a3.384,3.384,0,1,0,3.384-5.862L63.547,51.22,70.491,49.7a3.384,3.384,0,1,0-1.448-6.611m-25.7-3.531,4.974-2.872v5.743ZM39.96,33.7V27.952l4.973,2.872Zm-6.769,0L28.22,30.824l4.972-2.871Zm-3.383,5.862-4.975,2.872V36.686Zm3.383,5.862v5.742L28.22,48.291Zm6.769,0,4.973,2.873L39.96,51.162Z" transform="translate(0 0)" fill="#d3d3d3"/>
    </g>
  </g>
</svg>
