<svg xmlns="http://www.w3.org/2000/svg" width="79.245" height="78.083" viewBox="0 0 79.245 78.083">
  <path id="bx-bug" d="M61.018,19.037,72.164,7.9l-5.6-5.6L55.284,13.57a26.052,26.052,0,0,0-2.865-1.8,22.894,22.894,0,0,0-21.594,0,25.749,25.749,0,0,0-2.861,1.795L16.688,2.293l-5.6,5.6L22.231,19.037a33.572,33.572,0,0,0-5.349,9.83H2v7.924h9.141a45.715,45.715,0,0,0-.424,5.943,46.335,46.335,0,0,0,.424,5.987H2v7.925H12.908c.052.155.083.317.135.468a41.082,41.082,0,0,0,2.754,6.34c.174.321.376.614.559.927L7.123,73.613l5.6,5.6,8.36-8.364a29.626,29.626,0,0,0,8.194,6.415,26.993,26.993,0,0,0,5.928,2.3,25.814,25.814,0,0,0,12.826,0,26.991,26.991,0,0,0,5.928-2.3,29.822,29.822,0,0,0,5.282-3.582,32.683,32.683,0,0,0,2.908-2.837l8.364,8.364,5.6-5.6-9.232-9.232c.186-.317.388-.614.563-.935a40.528,40.528,0,0,0,2.75-6.336c.052-.155.083-.313.135-.468H81.245V48.719H72.1a46.385,46.385,0,0,0,.424-5.987,46.419,46.419,0,0,0-.42-5.943h9.141V28.868H66.363A33.655,33.655,0,0,0,61.018,19.037Zm-32.546,4.87a19.4,19.4,0,0,1,6.054-5.127,14.95,14.95,0,0,1,14.189,0,19.391,19.391,0,0,1,6.062,5.131,24.8,24.8,0,0,1,2.984,4.957H25.484A24.847,24.847,0,0,1,28.472,23.907ZM64.6,42.736a37.883,37.883,0,0,1-.5,6.153,35.637,35.637,0,0,1-1.407,5.69,32.808,32.808,0,0,1-2.215,5.1,30.074,30.074,0,0,1-2.9,4.4,25.979,25.979,0,0,1-3.443,3.558,22.094,22.094,0,0,1-3.879,2.631,19.125,19.125,0,0,1-4.188,1.625c-.158.04-.325.055-.483.091V48.679H37.66v23.3c-.158-.036-.325-.052-.483-.091a19.2,19.2,0,0,1-4.188-1.625,21.919,21.919,0,0,1-3.875-2.631,25.6,25.6,0,0,1-3.451-3.562,29.329,29.329,0,0,1-2.9-4.39,33.033,33.033,0,0,1-2.219-5.107,35.957,35.957,0,0,1-1.411-5.7,38.077,38.077,0,0,1-.024-12.085H64.128a37.5,37.5,0,0,1,.475,5.943Z" transform="translate(-2 -2.293)" fill="#d3d3d3"/>
</svg>
