<svg xmlns="http://www.w3.org/2000/svg" xmlns:xlink="http://www.w3.org/1999/xlink" width="78.083" height="78.083" viewBox="0 0 78.083 78.083">
  <defs>
    <clipPath id="clip-path">
      <rect id="사각형_218" data-name="사각형 218" width="78.083" height="78.083" fill="#d3d3d3"/>
    </clipPath>
  </defs>
  <g id="그룹_504" data-name="그룹 504" transform="translate(0 0)">
    <g id="그룹_503" data-name="그룹 503" transform="translate(0 0)" clip-path="url(#clip-path)">
      <path id="패스_1548" data-name="패스 1548" d="M77.055,72.089l-5.323-5.323c7.386-18.708,3.914-37.647-9.5-51.062C47.356.829,23.512-4.2,5.536,3.745A3.508,3.508,0,0,0,3.744,5.537C-4.2,23.513.828,47.356,15.7,62.231a44.4,44.4,0,0,0,31.853,13.31,52.31,52.31,0,0,0,19.206-3.812l5.326,5.326a3.512,3.512,0,1,0,4.967-4.966M20.668,57.265C8.114,44.711,3.594,24.91,9.638,9.639,24.909,3.6,44.71,8.115,57.265,20.669,68.1,31.507,71.249,46.089,66.246,61.28l-7.651-7.65-.439-22.1a3.512,3.512,0,1,0-7.022.139l.294,14.8L40.006,35.041,39.736,21.5a3.512,3.512,0,1,0-7.022.14l.124,6.234L26.966,22A3.512,3.512,0,0,0,22,26.967l6.255,6.255-6.986-.138a3.511,3.511,0,1,0-.14,7.021l14.293.285L46.845,51.812,31.3,51.5a3.512,3.512,0,0,0-.139,7.022l22.855.455,7.268,7.267c-15.19,5.005-29.773,1.859-40.612-8.981" transform="translate(0 0)" fill="#d3d3d3"/>
    </g>
  </g>
</svg>
