<svg xmlns="http://www.w3.org/2000/svg" width="58.997" height="58.132" viewBox="0 0 58.997 58.132">
  <path id="bx-bug" d="M45.938,14.759l8.3-8.3L50.065,2.293l-8.4,8.4a19.4,19.4,0,0,0-2.133-1.339,17.044,17.044,0,0,0-16.077,0,19.17,19.17,0,0,0-2.13,1.336l-8.4-8.392L8.764,6.464l8.3,8.3a24.994,24.994,0,0,0-3.982,7.319H2v5.9H8.805A34.034,34.034,0,0,0,8.49,32.4a34.5,34.5,0,0,0,.316,4.457H2v5.9h8.121c.038.115.062.236.1.348a30.585,30.585,0,0,0,2.05,4.72c.13.239.28.457.416.69L5.814,55.39l4.171,4.171,6.224-6.227a22.056,22.056,0,0,0,6.1,4.776,20.1,20.1,0,0,0,4.413,1.711,19.218,19.218,0,0,0,9.549,0,20.094,20.094,0,0,0,4.413-1.711,22.2,22.2,0,0,0,3.932-2.667,24.332,24.332,0,0,0,2.165-2.112l6.227,6.227L57.18,55.39l-6.873-6.873c.139-.236.289-.457.419-.7A30.173,30.173,0,0,0,52.773,43.1c.038-.115.062-.233.1-.348H61v-5.9H54.189A34.534,34.534,0,0,0,54.5,32.4a34.558,34.558,0,0,0-.313-4.425H61v-5.9H49.918A25.056,25.056,0,0,0,45.938,14.759Zm-24.23,3.625a14.446,14.446,0,0,1,4.507-3.817,11.13,11.13,0,0,1,10.563,0,14.437,14.437,0,0,1,4.513,3.82,18.464,18.464,0,0,1,2.221,3.69H19.484A18.5,18.5,0,0,1,21.708,18.384ZM48.608,32.4a28.2,28.2,0,0,1-.372,4.581,26.532,26.532,0,0,1-1.047,4.236,24.425,24.425,0,0,1-1.649,3.8,22.39,22.39,0,0,1-2.162,3.274,19.341,19.341,0,0,1-2.563,2.649A16.449,16.449,0,0,1,37.926,52.9a14.239,14.239,0,0,1-3.118,1.209c-.118.029-.242.041-.36.068V36.827h-5.9V54.175c-.118-.027-.242-.038-.36-.068A14.3,14.3,0,0,1,25.071,52.9a16.319,16.319,0,0,1-2.885-1.959,19.062,19.062,0,0,1-2.569-2.652,21.835,21.835,0,0,1-2.156-3.268,24.593,24.593,0,0,1-1.652-3.8,26.77,26.77,0,0,1-1.05-4.242,28.348,28.348,0,0,1-.018-9H48.254a27.922,27.922,0,0,1,.354,4.425Z" transform="translate(-2 -2.293)" fill="#0a2d7f"/>
</svg>
