<svg xmlns="http://www.w3.org/2000/svg" xmlns:xlink="http://www.w3.org/1999/xlink" width="73.577" height="73.577" viewBox="0 0 73.577 73.577">
  <defs>
    <clipPath id="clip-path">
      <rect id="사각형_220" data-name="사각형 220" width="73.577" height="73.577" fill="#d3d3d3"/>
    </clipPath>
  </defs>
  <g id="그룹_508" data-name="그룹 508" transform="translate(0 0)">
    <g id="그룹_507" data-name="그룹 507" transform="translate(0 0)" clip-path="url(#clip-path)">
      <path id="패스_1551" data-name="패스 1551" d="M72.375,10.486,64.016,2.127a7.28,7.28,0,0,0-10.286,0L25.8,30.053a3.083,3.083,0,0,0-.9,1.986l-.957,15.244a3.083,3.083,0,0,0,3.076,3.276q.1,0,.193-.006L42.462,49.6a3.086,3.086,0,0,0,1.986-.9L72.376,20.773a7.284,7.284,0,0,0,0-10.287m-4.36,5.927-27.1,27.1-10.592.666.665-10.592,27.1-27.1a1.11,1.11,0,0,1,1.567,0l8.359,8.359a1.109,1.109,0,0,1,0,1.567" transform="translate(-0.926 0)" fill="#d3d3d3"/>
      <path id="패스_1552" data-name="패스 1552" d="M58.778,41.447a3.083,3.083,0,0,0-3.083,3.083V63.553a4.335,4.335,0,0,1-4.329,4.33H10.5a4.335,4.335,0,0,1-4.33-4.33V22.683a4.335,4.335,0,0,1,4.33-4.33H29.519a3.083,3.083,0,0,0,0-6.166H10.5A10.508,10.508,0,0,0,0,22.683v40.87A10.507,10.507,0,0,0,10.5,74.048h40.87A10.506,10.506,0,0,0,61.861,63.553V44.53a3.083,3.083,0,0,0-3.083-3.083" transform="translate(0 -0.471)" fill="#d3d3d3"/>
    </g>
  </g>
</svg>
