<svg xmlns="http://www.w3.org/2000/svg" xmlns:xlink="http://www.w3.org/1999/xlink" width="58.999" height="53.639" viewBox="0 0 58.999 53.639">
  <defs>
    <clipPath id="clip-path">
      <rect id="사각형_216" data-name="사각형 216" width="58.999" height="53.639" fill="#357f0a"/>
    </clipPath>
  </defs>
  <g id="그룹_517" data-name="그룹 517" transform="translate(0 0)">
    <g id="그룹_499" data-name="그룹 499" transform="translate(0 0)" clip-path="url(#clip-path)">
      <path id="패스_1543" data-name="패스 1543" d="M56.347,14.068H54.938A12.858,12.858,0,0,0,53.1,9.652l1-1A2.652,2.652,0,0,0,50.351,4.9l-1,1a12.859,12.859,0,0,0-4.416-1.84V2.652a2.652,2.652,0,0,0-5.3,0V4.061A12.859,12.859,0,0,0,35.21,5.9l-1-1a2.652,2.652,0,0,0-3.751,3.751l1,1A12.834,12.834,0,0,0,29.533,14.6,16.475,16.475,0,0,0,7.147,29.89a12.472,12.472,0,0,0,5.331,23.75H43.741a12.472,12.472,0,0,0,5.6-23.619,9.188,9.188,0,0,0,.217-1.984c0-.1-.012-.2-.015-.3l.812.812A2.652,2.652,0,0,0,54.1,24.793l-1.008-1.008a12.96,12.96,0,0,0,1.839-4.412h1.415a2.652,2.652,0,1,0,0-5.3M34.729,17.795a7.188,7.188,0,0,1-.082-1.075,7.631,7.631,0,1,1,12.874,5.531,9.178,9.178,0,0,0-2.012-1.84l-.03-.021c-.21-.142-.428-.271-.65-.4-.059-.033-.119-.067-.179-.1-.2-.1-.4-.2-.6-.289-.1-.044-.2-.085-.3-.125-.18-.072-.362-.14-.547-.2-.14-.045-.282-.083-.424-.123-.16-.044-.32-.089-.484-.125-.19-.041-.383-.069-.577-.1-.127-.019-.252-.045-.381-.059a9.3,9.3,0,0,0-1-.056,9.169,9.169,0,0,0-3.85.841c0-.007-.011-.012-.016-.019-.237-.293-.485-.574-.74-.849-.069-.074-.14-.146-.21-.22q-.334-.348-.687-.675c-.036-.034-.069-.07-.106-.1M50.914,41.162a7.181,7.181,0,0,1-7.174,7.174H12.477A7.169,7.169,0,0,1,10.6,34.247a2.651,2.651,0,0,0,1.94-2.883A11.174,11.174,0,0,1,30.719,21.343c.23.188.449.385.662.588.048.046.1.091.143.138.233.23.456.469.666.718.029.035.056.072.085.106.178.217.347.44.509.67.051.072.1.144.15.217.18.269.352.543.51.829a2.653,2.653,0,0,0,4.171.622A3.845,3.845,0,0,1,41.063,24.2c.066.012.13.032.194.047a3.944,3.944,0,0,1,.51.159c.059.023.116.047.173.072a3.945,3.945,0,0,1,.518.281c.029.019.061.035.089.056a3.955,3.955,0,0,1,1.011,1.009c.027.04.05.084.076.125a3.8,3.8,0,0,1,.256.471c.035.076.066.155.1.234a3.826,3.826,0,0,1-.355,3.49,2.652,2.652,0,0,0,1.661,4.022,7.21,7.21,0,0,1,5.623,7" transform="translate(0 0)" fill="#357f0a"/>
      <path id="패스_1544" data-name="패스 1544" d="M28.2,28.164a8.3,8.3,0,0,0-8.286,8.286,2.652,2.652,0,1,0,5.3,0A2.986,2.986,0,0,1,28.2,33.468a2.652,2.652,0,1,0,0-5.3" transform="translate(-4.563 -6.453)" fill="#357f0a"/>
    </g>
  </g>
</svg>
