<svg xmlns="http://www.w3.org/2000/svg" width="57.021" height="51.317" viewBox="0 0 57.021 51.317">
  <g id="bx-cloud-rain" transform="translate(-2 -4.001)">
    <path id="패스_1576" data-name="패스 1576" d="M8,13h5.7V32.958H8Zm8.553,5.7h5.7V38.66h-5.7ZM25.106,13h5.7V32.958h-5.7Z" transform="translate(11.106 16.658)" fill="#3f2b8c"/>
    <path id="패스_1577" data-name="패스 1577" d="M50.309,21.427A19.984,19.984,0,0,0,30.511,4a19.219,19.219,0,0,0-17.8,11.832C6.587,17.663,2,23.442,2,29.661A14.272,14.272,0,0,0,16.255,43.916v-5.7A8.564,8.564,0,0,1,7.7,29.661c0-4,3.418-7.858,7.621-8.6l1.656-.294.547-1.594A13.493,13.493,0,0,1,30.511,9.7,14.272,14.272,0,0,1,44.766,23.959V26.81h2.851a5.7,5.7,0,1,1,0,11.4H44.766v5.7h2.851a11.406,11.406,0,0,0,2.691-22.489Z" transform="translate(0 0)" fill="#3f2b8c"/>
  </g>
</svg>
