<svg xmlns="http://www.w3.org/2000/svg" width="80.05" height="79.114" viewBox="0 0 80.05 79.114">
  <g id="bx-message-dots" transform="translate(-2 -2)">
    <path id="패스_1578" data-name="패스 1578" d="M74.045,2H10.005A8.013,8.013,0,0,0,2,10.005v48.03a8.013,8.013,0,0,0,8.005,8.005H22.013V81.114L47.136,66.04H74.045a8.013,8.013,0,0,0,8.005-8.005V10.005A8.013,8.013,0,0,0,74.045,2Zm0,56.035H44.919l-14.9,8.942V58.035H10.005V10.005h64.04Z" fill="#fff"/>
    <ellipse id="타원_53" data-name="타원 53" cx="8.253" cy="7.84" rx="8.253" ry="7.84" transform="translate(45.741 25.934)" fill="#fff"/>
    <ellipse id="타원_54" data-name="타원 54" cx="8.253" cy="7.84" rx="8.253" ry="7.84" transform="translate(21.807 25.934)" fill="#fff"/>
  </g>
</svg>
