<svg xmlns="http://www.w3.org/2000/svg" xmlns:xlink="http://www.w3.org/1999/xlink" width="58.998" height="63.805" viewBox="0 0 58.998 63.805">
  <defs>
    <clipPath id="clip-path">
      <rect id="사각형_215" data-name="사각형 215" width="58.998" height="63.805" fill="#19a69d"/>
    </clipPath>
  </defs>
  <g id="그룹_498" data-name="그룹 498" transform="translate(0 0)">
    <g id="그룹_497" data-name="그룹 497" transform="translate(0 0)" clip-path="url(#clip-path)">
      <path id="패스_1542" data-name="패스 1542" d="M55.683,34.751,44.428,37.214V26.591l11.255,2.463a2.729,2.729,0,1,0,1.168-5.332l-5.6-1.225,4.877-2.817A2.73,2.73,0,1,0,53.4,14.952L48.52,17.769,50.259,12.3a2.729,2.729,0,0,0-5.2-1.656L41.563,21.63l-9.2-5.312L40.125,7.8A2.729,2.729,0,0,0,36.09,4.125L32.228,8.362V2.729a2.729,2.729,0,1,0-5.459,0V8.363L22.907,4.125A2.729,2.729,0,1,0,18.873,7.8l7.761,8.517-9.2,5.311L13.94,10.649a2.729,2.729,0,0,0-5.2,1.656l1.739,5.463L5.6,14.952A2.73,2.73,0,1,0,2.87,19.68L7.747,22.5l-5.6,1.226a2.729,2.729,0,1,0,1.167,5.332L14.57,26.591V37.214L3.314,34.751a2.729,2.729,0,1,0-1.167,5.332l5.6,1.226L2.87,44.125A2.73,2.73,0,1,0,5.6,48.853l4.878-2.816L8.739,51.5a2.729,2.729,0,1,0,5.2,1.656l3.495-10.98,9.2,5.312L18.873,56a2.729,2.729,0,1,0,4.034,3.676l3.862-4.238v5.633a2.729,2.729,0,1,0,5.459,0V55.443l3.862,4.238A2.729,2.729,0,1,0,40.125,56l-7.762-8.517,9.2-5.312,3.495,10.98a2.729,2.729,0,1,0,5.2-1.656L48.52,46.037,53.4,48.853a2.73,2.73,0,1,0,2.729-4.728l-4.877-2.816,5.6-1.226a2.729,2.729,0,1,0-1.168-5.332M34.957,31.9l4.012-2.316v4.632Zm-2.729-4.727V22.543l4.011,2.316Zm-5.459,0-4.01-2.316,4.01-2.315ZM24.041,31.9l-4.012,2.316V29.587Zm2.729,4.728v4.631l-4.01-2.315Zm5.459,0,4.011,2.317-4.011,2.316Z" transform="translate(0 0)" fill="#19a69d"/>
    </g>
  </g>
</svg>
