<svg xmlns="http://www.w3.org/2000/svg" xmlns:xlink="http://www.w3.org/1999/xlink" width="53.639" height="53.639" viewBox="0 0 53.639 53.639">
  <defs>
    <clipPath id="clip-path">
      <rect id="사각형_218" data-name="사각형 218" width="53.639" height="53.639" fill="#0a5f7f"/>
    </clipPath>
  </defs>
  <g id="그룹_518" data-name="그룹 518" transform="translate(0 0)">
    <g id="그룹_503" data-name="그룹 503" transform="translate(0 0)" clip-path="url(#clip-path)">
      <path id="패스_1548" data-name="패스 1548" d="M52.933,49.521l-3.657-3.657C54.349,33.013,51.964,20,42.749,10.787,32.531.569,16.152-2.887,3.8,2.573A2.41,2.41,0,0,0,2.572,3.8c-5.458,12.349-2,28.728,8.214,38.946a30.5,30.5,0,0,0,21.882,9.143,35.935,35.935,0,0,0,13.194-2.619l3.659,3.659a2.413,2.413,0,0,0,3.412-3.411M14.2,39.338C5.574,30.714,2.468,17.112,6.621,6.622,17.111,2.47,30.713,5.575,39.338,14.2c7.445,7.445,9.607,17.463,6.17,27.9l-5.256-5.255-.3-15.184a2.412,2.412,0,1,0-4.824.1l.2,10.165-7.846-7.846-.185-9.3a2.412,2.412,0,1,0-4.824.1l.085,4.283-4.034-4.034a2.412,2.412,0,1,0-3.411,3.411l4.3,4.3-4.8-.1a2.412,2.412,0,1,0-.1,4.823l9.819.2,7.846,7.846L21.5,35.379a2.412,2.412,0,0,0-.1,4.824l15.7.313L42.1,45.507c-10.435,3.438-20.453,1.277-27.9-6.17" transform="translate(0 0)" fill="#0a5f7f"/>
    </g>
  </g>
</svg>
