<svg xmlns="http://www.w3.org/2000/svg" xmlns:xlink="http://www.w3.org/1999/xlink" width="58.998" height="58.998" viewBox="0 0 58.998 58.998">
  <defs>
    <clipPath id="clip-path">
      <rect id="사각형_220" data-name="사각형 220" width="58.998" height="58.998" fill="#383838"/>
    </clipPath>
  </defs>
  <g id="그룹_508" data-name="그룹 508" transform="translate(0 0)">
    <g id="그룹_507" data-name="그룹 507" transform="translate(0 0)" clip-path="url(#clip-path)">
      <path id="패스_1551" data-name="패스 1551" d="M62.779,8.408l-6.7-6.7a5.838,5.838,0,0,0-8.248,0L25.435,24.1a2.473,2.473,0,0,0-.719,1.593l-.768,12.223a2.472,2.472,0,0,0,2.467,2.627q.077,0,.155,0l12.223-.768a2.475,2.475,0,0,0,1.593-.719L62.779,16.657a5.841,5.841,0,0,0,0-8.249m-3.5,4.752L37.551,34.893l-8.493.534.533-8.493L51.324,5.2a.89.89,0,0,1,1.256,0l6.7,6.7a.889.889,0,0,1,0,1.256" transform="translate(-5.486 0)" fill="#383838"/>
      <path id="패스_1552" data-name="패스 1552" d="M47.132,35.649a2.472,2.472,0,0,0-2.472,2.472V53.375a3.476,3.476,0,0,1-3.471,3.472H8.416a3.476,3.476,0,0,1-3.472-3.472V20.6a3.476,3.476,0,0,1,3.472-3.472H23.67a2.472,2.472,0,0,0,0-4.944H8.416A8.426,8.426,0,0,0,0,20.6V53.375a8.425,8.425,0,0,0,8.416,8.415H41.188A8.425,8.425,0,0,0,49.6,53.375V38.122a2.472,2.472,0,0,0-2.472-2.472" transform="translate(0 -2.793)" fill="#383838"/>
    </g>
  </g>
</svg>
