<svg xmlns="http://www.w3.org/2000/svg" width="24" height="24" viewBox="0 0 24 24">
  <path id="icons8-ms-엑셀" d="M15.875,4l-.094.031-11,2.438L4,6.656V25.344l.781.188,11,2.438.094.031H18V25H28V7H18V4ZM16,6.031V25.969L6,23.781V8.219ZM18,9h8V23H18V21h2V19H18V18h2V16H18V15h2V13H18V12h2V10H18Zm3,1v2h4V10Zm-6.844,1-2.281.281-1.25,2.688c-.133.387-.231.68-.281.875h-.031a5.955,5.955,0,0,0-.25-.844l-.625-2.312-2.125.25L7.219,12,9,16,7,20l2.156.25.875-2.469a6.5,6.5,0,0,0,.219-.719h.031a3.52,3.52,0,0,0,.156.688l1.344,2.938L14.219,21l-2.656-5.031ZM21,13v2h4V13Zm0,3v2h4V16Zm0,3v2h4V19Z" transform="translate(-4 -4)" fill="#fff"/>
</svg>
